<?xml version="1.0" standalone="no"?>
<!DOCTYPE svg PUBLIC "-//W3C//DTD SVG 20010904//EN"
 "http://www.w3.org/TR/2001/REC-SVG-20010904/DTD/svg10.dtd">
<svg version="1.0" xmlns="http://www.w3.org/2000/svg"
 width="1020.000000pt" height="1395.000000pt" viewBox="0 0 1020.000000 1395.000000"
 preserveAspectRatio="xMidYMid meet">

<g transform="translate(0.000000,1395.000000) scale(0.100000,-0.100000)"
fill="#000000" stroke="none">
<path d="M3190 13693 c-459 -135 -836 -246 -837 -247 -1 -1 -16 -55 -33 -120
-130 -504 -441 -943 -875 -1236 -149 -100 -249 -150 -461 -231 l-192 -72 18
-51 c80 -232 265 -622 400 -846 309 -511 747 -994 1265 -1396 705 -547 1411
-850 2252 -968 l41 -6 167 233 c147 204 170 232 192 230 14 -1 27 -4 29 -6 2
-2 -32 -63 -76 -137 -322 -536 -531 -1139 -617 -1778 -25 -185 -25 -640 0
-772 59 -311 164 -586 311 -813 225 -349 612 -656 1081 -858 375 -162 782
-256 1220 -282 31 -1 13 -7 -75 -24 -200 -40 -249 -44 -500 -50 -224 -5 -362
1 -527 24 l-47 6 49 -64 c70 -92 218 -234 321 -307 48 -35 141 -90 206 -122
111 -56 115 -59 85 -65 -162 -33 -544 -124 -669 -159 -267 -76 -615 -217 -801
-324 -374 -216 -588 -506 -650 -882 -24 -141 -29 -210 -16 -210 5 0 49 23 96
50 268 159 530 260 753 290 135 19 386 15 521 -9 270 -47 335 -107 333 -311
-1 -148 -54 -288 -147 -390 -18 -19 -40 -44 -50 -56 l-17 -21 57 9 c98 15 211
58 288 109 74 50 178 153 198 196 13 28 21 29 62 3 39 -24 77 -80 100 -146 20
-61 30 -228 17 -313 l-9 -65 23 30 c42 51 114 201 136 281 29 108 29 286 0
395 -54 200 -132 339 -266 473 -144 143 -320 250 -549 330 l-117 41 72 42
c200 114 389 167 823 233 177 27 487 32 619 10 247 -41 703 -189 926 -301 318
-160 454 -334 449 -580 -2 -110 -9 -105 111 -70 152 45 278 156 356 315 45 91
74 196 74 270 0 61 -26 158 -61 227 -34 67 -133 174 -186 201 l-32 17 -38 -70
c-21 -38 -41 -70 -44 -70 -14 0 -112 359 -125 464 -6 42 -5 47 9 40 38 -22
284 -244 400 -362 l127 -130 0 103 c0 177 -51 349 -151 511 -76 123 -278 327
-414 417 -253 167 -591 295 -1135 432 -550 139 -940 182 -1370 151 -263 -19
-421 48 -710 300 -366 318 -545 606 -611 984 -53 305 -27 764 61 1097 133 501
458 1070 864 1513 48 52 105 112 127 132 22 21 38 42 34 48 -3 6 -28 22 -55
35 -146 74 -531 322 -735 474 -532 397 -888 821 -1136 1356 -141 304 -240 708
-286 1160 -19 196 -22 653 -4 845 33 369 105 739 207 1073 3 10 0 17 -8 16 -7
-1 -389 -112 -848 -246z m-940 -1465 c216 -75 384 -229 588 -543 149 -228 187
-325 163 -414 -25 -88 -95 -120 -176 -81 -39 19 -57 39 -122 138 -157 242
-330 445 -445 523 -125 85 -373 188 -461 192 -56 2 -75 -23 -94 -124 -24 -128
-21 -283 10 -399 33 -128 77 -239 133 -335 110 -192 142 -284 135 -397 -3 -58
-96 -128 -171 -128 -88 0 -156 61 -245 221 -98 174 -146 320 -165 501 -22 214
38 499 122 574 30 28 92 59 145 73 27 7 49 22 60 38 35 53 116 123 176 153
116 57 200 59 347 8z m-221 -476 c43 -32 60 -65 71 -137 19 -119 46 -167 201
-355 162 -195 249 -263 380 -295 81 -20 188 -17 257 8 23 8 42 11 42 7 0 -17
-80 -128 -115 -159 -52 -46 -149 -90 -224 -102 -178 -28 -400 82 -557 276 -77
95 -175 282 -203 386 -30 109 -53 259 -47 294 6 30 55 86 86 98 25 10 83 -1
109 -21z m580 -1302 c124 -57 281 -267 281 -377 0 -53 -16 -86 -63 -131 l-35
-34 -80 100 -81 99 30 29 c16 15 29 37 29 48 0 25 -38 66 -61 66 -10 0 -79
-50 -153 -110 -112 -91 -136 -116 -136 -137 0 -57 68 -84 105 -43 10 11 23 20
29 20 7 0 46 -42 88 -94 l76 -94 -22 -21 c-30 -28 -89 -51 -131 -51 -57 0
-126 42 -203 125 -152 162 -187 289 -106 384 35 42 230 201 273 223 46 23 105
23 160 -2z m761 -634 c124 -104 231 -194 238 -201 10 -9 5 -20 -24 -53 -19
-23 -40 -42 -46 -42 -5 0 -38 25 -73 55 -34 30 -67 55 -73 55 -6 0 -91 -94
-188 -210 -98 -115 -181 -210 -185 -210 -8 0 -199 159 -199 165 0 2 81 99 180
216 99 117 180 216 180 220 0 3 -31 33 -70 65 -38 32 -70 61 -70 64 0 4 16 25
36 49 31 36 38 40 53 29 9 -7 117 -98 241 -202z m684 -342 c98 -25 219 -88
260 -135 40 -47 51 -83 41 -137 -11 -70 -12 -70 -132 -25 l-108 40 0 49 c0 43
-3 50 -27 62 -36 17 -68 1 -68 -34 0 -20 26 -52 108 -133 60 -58 116 -122 125
-143 48 -103 -19 -227 -131 -244 -94 -14 -293 47 -394 121 -77 56 -105 134
-77 214 8 23 16 30 28 26 9 -3 61 -22 116 -43 l100 -38 -3 -45 c-4 -53 11 -70
60 -72 24 -2 35 4 44 21 19 39 5 63 -92 157 -51 50 -104 108 -118 129 -55 82
-18 198 74 235 38 15 125 13 194 -5z"/>
<path d="M9440 11359 c-322 -204 -585 -373 -585 -377 0 -4 19 -46 42 -93 62
-128 97 -235 137 -424 21 -93 55 -233 76 -310 73 -263 100 -451 100 -707 0
-189 -10 -271 -81 -671 -93 -531 -166 -771 -329 -1097 -109 -217 -312 -528
-558 -854 -200 -264 -536 -641 -882 -987 -263 -264 -418 -403 -684 -617 -135
-109 -165 -137 -150 -142 11 -4 106 -24 213 -45 l194 -38 41 23 c81 45 243
154 326 218 99 77 1054 1030 1210 1207 507 577 951 1215 1156 1663 225 491
414 1134 488 1657 35 250 41 338 41 640 0 376 -22 624 -86 960 -25 133 -76
355 -82 362 -1 1 -265 -165 -587 -368z"/>
<path d="M935 10509 c-365 -202 -925 -562 -925 -594 0 -17 134 -207 225 -320
386 -480 854 -824 1448 -1064 188 -76 351 -132 652 -226 608 -188 1073 -276
1590 -300 143 -7 549 11 574 25 7 4 33 52 56 106 37 86 40 100 26 106 -9 3
-88 23 -176 43 -448 104 -988 283 -1355 450 -621 282 -1217 731 -1596 1202
-104 128 -263 369 -342 516 -35 64 -65 117 -66 117 -1 0 -51 -27 -111 -61z"/>
<path d="M8277 9931 c-257 -153 -470 -280 -473 -283 -2 -3 40 -95 93 -204 220
-445 344 -852 410 -1344 22 -168 25 -647 5 -808 -7 -57 -12 -106 -9 -108 9
-10 196 290 272 437 318 620 420 1265 314 1979 -33 221 -122 611 -139 610 -3
0 -215 -126 -473 -279z"/>
<path d="M470 8488 c-195 -182 -356 -335 -358 -339 -4 -9 166 -106 358 -203
585 -298 1226 -499 1925 -606 693 -105 1326 -67 1931 116 l80 24 15 141 15
141 -166 -9 c-373 -18 -801 0 -1130 48 -464 68 -835 158 -1135 276 -391 154
-754 378 -1067 656 -53 48 -101 87 -105 87 -4 -1 -168 -150 -363 -332z"/>
<path d="M7525 8274 c-192 -118 -371 -227 -396 -243 l-46 -28 80 -84 c196
-207 337 -435 417 -678 106 -319 113 -585 24 -971 -5 -23 -3 -22 26 10 139
157 289 434 368 681 112 349 120 778 23 1155 -37 145 -123 375 -139 373 -4 0
-164 -97 -357 -215z"/>
<path d="M981 7018 c-161 -192 -289 -353 -285 -358 15 -14 313 -107 444 -139
362 -88 768 -124 1153 -102 488 28 1035 114 1731 271 255 57 255 57 260 83 8
37 29 297 25 301 -2 3 -69 -9 -149 -25 -162 -33 -420 -71 -610 -91 -79 -8
-256 -13 -485 -12 -307 0 -387 4 -545 23 -306 36 -585 99 -800 178 -94 35
-315 141 -387 186 -21 13 -43 26 -48 30 -6 3 -143 -152 -304 -345z"/>
<path d="M6943 6717 c-204 -133 -375 -245 -378 -249 -4 -4 20 -47 52 -95 103
-154 151 -293 160 -463 9 -171 -35 -336 -127 -478 -54 -84 -67 -110 -49 -96 8
6 52 39 99 74 117 87 331 305 413 420 77 109 175 300 211 410 55 173 70 384
41 556 -18 99 -35 164 -44 163 -3 0 -173 -109 -378 -242z"/>
<path d="M4158 6435 c-154 -103 -358 -194 -530 -235 -363 -87 -932 -72 -1336
35 -52 14 -95 25 -96 25 -7 0 -529 -791 -525 -795 29 -28 572 -40 759 -17 164
21 376 66 615 132 433 120 585 174 827 296 148 76 445 264 454 289 4 10 -89
300 -100 312 -1 1 -32 -18 -68 -42z"/>
<path d="M4310 5728 c-323 -201 -738 -370 -998 -408 -128 -19 -299 -8 -396 24
-43 15 -80 25 -81 24 -5 -6 -195 -781 -193 -783 6 -6 230 27 348 51 391 80
762 242 1107 481 82 56 235 178 347 277 l40 34 -23 159 c-13 87 -26 170 -29
185 l-7 27 -115 -71z"/>
<path d="M4552 5179 c-114 -209 -328 -423 -506 -505 -60 -28 -196 -64 -238
-64 l-28 0 0 -335 0 -334 78 35 c299 136 620 385 762 590 70 102 136 245 164
356 42 169 49 144 -67 240 -56 47 -107 87 -112 90 -6 4 -29 -29 -53 -73z"/>
<path d="M4310 3499 c-520 -41 -1038 -221 -1587 -551 -481 -289 -886 -651
-1217 -1087 -47 -62 -86 -116 -86 -120 0 -3 154 -87 342 -185 268 -140 344
-176 350 -165 81 141 357 593 436 714 230 352 366 491 747 763 359 256 700
435 1110 583 l160 58 -75 -1 c-41 0 -122 -5 -180 -9z"/>
<path d="M4830 3458 c-347 -100 -633 -248 -910 -471 -256 -205 -616 -590 -858
-916 -346 -464 -570 -1006 -653 -1576 -20 -142 -42 -386 -34 -393 5 -5 1046
-91 1108 -92 34 0 37 2 32 23 -36 153 -54 502 -36 697 38 396 147 690 523
1414 338 650 472 848 800 1180 92 94 166 171 165 172 -1 0 -63 -16 -137 -38z"/>
<path d="M6600 2803 c-93 -6 -93 -4 -5 -95 62 -64 92 -106 133 -185 l52 -101
39 5 c87 12 271 -45 377 -117 25 -16 50 -30 56 -30 18 0 3 148 -23 215 -68
181 -362 325 -629 308z"/>
</g>
</svg>
